<svg width="908" height="412" viewBox="0 0 908 412" fill="none" xmlns="http://www.w3.org/2000/svg">
<path fill-rule="evenodd" clip-rule="evenodd" d="M753.236 231.142C778.547 249.531 820.929 242.595 839.318 217.285C857.707 191.975 867.024 92.9817 867.024 92.9817C867.024 92.9817 771.164 121.068 748.419 146.086C725.674 171.104 727.926 212.753 753.236 231.142Z" fill="#80D25B"/>
<path d="M832.244 134.647C832.244 134.647 780.115 166.643 761.159 225.572C742.202 284.501 686.06 277.808 686.06 277.808" stroke="#22BA8E" stroke-width="10.7281" stroke-linecap="round"/>
<path d="M804.299 209.002L769.454 207.522L752.59 177.809" stroke="#22BA8E" stroke-width="7.15205" stroke-linecap="round"/>
<path d="M814.997 177.911L791.238 173.051L783.607 153.676" stroke="#22BA8E" stroke-width="7.15205" stroke-linecap="round"/>
<path d="M0.837842 342.387C8.58556 307.523 15.9459 273.433 22.9188 240.117C25.7597 226.688 28.6005 212.355 31.4413 197.118C34.5404 181.622 37.6395 165.998 40.7386 150.244C43.8377 134.49 46.6785 119.64 49.2611 105.695C51.8437 91.4904 53.9097 79.094 55.4593 68.5055C65.7896 65.4064 76.8946 62.5656 88.7745 59.983C100.913 57.4004 111.759 56.1091 121.315 56.1091C136.81 56.1091 149.078 59.4665 158.117 66.1812C167.156 72.6376 173.612 81.4183 177.486 92.5234C181.36 103.628 183.297 115.767 183.297 128.938C183.297 143.4 180.585 157.346 175.162 170.775C169.996 183.947 162.894 195.826 153.855 206.415C145.075 217.003 134.873 225.397 123.252 231.595C111.889 237.793 100.009 240.892 87.6123 240.892H83.3511C81.285 249.673 79.3481 259.229 77.5403 269.559C75.7325 279.889 74.1829 289.445 72.8916 298.225C71.8586 303.391 70.9547 308.556 70.1799 313.721C69.4052 318.886 68.6304 324.051 67.8556 329.216L0.837842 342.387ZM91.0988 200.217C97.0387 198.667 102.979 194.793 108.919 188.595C114.858 182.139 119.765 174.004 123.639 164.19C127.513 154.376 129.45 143.658 129.45 132.037C129.45 122.481 127.255 115.25 122.864 110.343C118.732 105.436 114.084 102.983 108.919 102.983C106.078 120.028 103.237 136.169 100.396 151.406C97.5552 166.643 94.4561 182.913 91.0988 200.217ZM249.116 341.225C249.632 336.835 250.149 332.574 250.665 328.441C251.182 324.309 251.699 320.177 252.215 316.045L254.539 294.352C254.798 290.736 255.056 287.379 255.314 284.279C255.572 281.18 255.831 278.34 256.089 275.757H222.386L206.891 331.541C201.209 332.315 194.495 333.219 186.747 334.252C178.999 335.027 171.768 335.802 165.053 336.577C160.921 337.093 156.789 337.61 152.657 338.126C148.783 338.643 144.78 339.159 140.648 339.676L171.251 238.181C174.867 226.042 178.999 212.226 183.648 196.73C188.296 181.235 192.945 165.352 197.594 149.082C202.501 132.812 207.02 117.574 211.152 103.37C215.542 88.9078 219.029 76.7697 221.612 66.9559C239.173 65.6646 256.993 64.1151 275.071 62.3073C293.407 60.4995 311.227 58.0461 328.53 54.947C327.239 69.4094 325.948 85.8087 324.656 104.145C323.623 122.223 322.59 140.947 321.557 160.316C320.782 179.685 319.878 198.796 318.845 217.649C318.329 235.469 317.683 253.934 316.908 273.045C316.134 291.898 315.359 311.267 314.584 331.153C310.71 331.67 306.836 332.186 302.963 332.703C299.089 333.219 295.215 333.736 291.341 334.252C284.885 335.285 277.783 336.447 270.035 337.739C262.287 339.03 255.314 340.192 249.116 341.225ZM231.684 237.018C233.233 237.018 236.074 236.889 240.206 236.631C244.596 236.373 248.729 236.114 252.602 235.856C256.476 235.598 258.801 235.469 259.575 235.469C259.575 232.112 260.092 225.268 261.125 214.937C262.158 204.607 263.191 193.76 264.224 182.397C264.741 175.682 265.257 168.838 265.774 161.866C266.548 154.634 267.323 147.274 268.098 139.785L270.422 106.082L264.611 106.469L255.702 139.785L231.684 237.018ZM346.202 336.189L364.021 258.325C364.021 239.988 363.505 221.265 362.472 202.154C361.697 182.784 360.664 163.544 359.373 144.433C358.34 125.322 357.307 109.956 356.274 98.3342C355.499 86.7126 355.111 80.9018 355.111 80.9018L418.255 56.8839V104.145C418.255 119.124 418.126 132.682 417.868 144.821C417.868 156.7 417.868 167.16 417.868 176.199C421.225 167.418 425.228 156.571 429.877 143.658C434.784 130.745 439.303 118.22 443.435 106.082C446.018 98.8507 448.471 91.6195 450.796 84.3883C453.378 76.8989 455.961 69.1511 458.543 61.1452L518.588 74.7036C507.483 96.6555 496.636 118.737 486.048 140.947C479.85 154.634 473.006 169.097 465.516 184.334C458.285 199.313 451.441 213.388 444.985 226.559C438.787 239.472 433.88 249.802 430.264 257.55C428.973 264.265 427.294 271.625 425.228 279.631C423.42 287.637 421.613 295.255 419.805 302.487C418.772 306.619 417.61 310.88 416.318 315.27C415.027 319.402 413.736 323.664 412.445 328.054L346.202 336.189Z" fill="white"/>
<path d="M488.463 225.838L478.621 320.215H457.092L478.621 193.676H510.519L540.133 290.25L570.098 193.676H601.996L619.922 320.215H584.421L573.964 228.299L549.272 320.215H517.373L488.463 225.838ZM670.713 194.204C670.713 196.43 670.274 198.539 669.395 200.53C668.575 202.522 667.433 204.25 665.968 205.715C664.504 207.18 662.775 208.351 660.784 209.23C658.792 210.05 656.683 210.46 654.457 210.46C652.231 210.46 650.122 210.05 648.13 209.23C646.197 208.351 644.498 207.18 643.033 205.715C641.569 204.25 640.397 202.522 639.518 200.53C638.698 198.539 638.288 196.43 638.288 194.204C638.288 191.977 638.698 189.898 639.518 187.964C640.397 185.973 641.569 184.244 643.033 182.78C644.498 181.315 646.197 180.173 648.13 179.353C650.122 178.474 652.231 178.035 654.457 178.035C656.683 178.035 658.792 178.474 660.784 179.353C662.775 180.173 664.504 181.315 665.968 182.78C667.433 184.244 668.575 185.973 669.395 187.964C670.274 189.898 670.713 191.977 670.713 194.204ZM669.395 320.215H639.606V218.808H669.395V320.215ZM798.131 262.042C798.131 268.896 797.281 276.044 795.582 283.484C793.942 290.924 791.628 298.217 788.64 305.364C785.653 312.511 782.079 319.219 777.92 325.487C773.76 331.814 769.191 337.262 764.211 341.832L753.051 335.769C754.633 332.839 756.127 329.559 757.533 325.927C758.939 322.295 760.198 318.457 761.311 314.415C762.483 310.314 763.508 306.096 764.387 301.761C765.324 297.426 766.086 293.15 766.672 288.932C767.316 284.655 767.785 280.525 768.078 276.541C768.429 272.499 768.605 268.75 768.605 265.294C768.605 263.009 768.517 260.578 768.341 258C768.166 255.364 767.785 252.757 767.199 250.179C766.672 247.543 765.94 245.024 765.002 242.622C764.065 240.22 762.805 238.111 761.224 236.295C759.7 234.479 757.826 233.015 755.6 231.901C753.432 230.788 750.854 230.232 747.867 230.232C744.938 230.232 742.331 230.906 740.046 232.253C737.761 233.542 735.74 235.27 733.983 237.438C732.225 239.547 730.702 241.978 729.413 244.731C728.183 247.484 727.158 250.326 726.338 253.255C725.576 256.125 725.02 258.967 724.668 261.779C724.317 264.591 724.141 267.11 724.141 269.336V320.215H694.352V218.72H705.775L719.396 242.358C721.036 238.433 723.086 234.86 725.547 231.638C728.007 228.416 730.79 225.662 733.895 223.378C737 221.093 740.427 219.335 744.176 218.105C747.984 216.875 752.085 216.26 756.478 216.26C763.508 216.26 769.63 217.402 774.844 219.687C780.058 221.972 784.393 225.164 787.849 229.265C791.306 233.307 793.883 238.141 795.582 243.764C797.281 249.33 798.131 255.422 798.131 262.042ZM854.897 320.215H825.108V230.495H806.654V218.72H825.108V181.374H854.897V218.72H885.653V230.495H854.897V320.215Z" fill="white"/>
</svg>
